<svg xmlns="http://www.w3.org/2000/svg" xmlns:xlink="http://www.w3.org/1999/xlink" width="120" zoomAndPan="magnify" viewBox="0 0 90 30.000001" height="40" preserveAspectRatio="xMidYMid meet" version="1.0"><defs><g/><clipPath id="4bfce4990b"><path d="M 53 4 L 60.851562 4 L 60.851562 12 L 53 12 Z M 53 4 " clip-rule="nonzero"/></clipPath><clipPath id="6b0f659def"><rect x="0" width="61" y="0" height="16"/></clipPath><clipPath id="37902ede0c"><path d="M 0.414062 2 L 3 2 L 3 5 L 0.414062 5 Z M 0.414062 2 " clip-rule="nonzero"/></clipPath><clipPath id="ee13dc5b6e"><rect x="0" width="55" y="0" height="6"/></clipPath><clipPath id="d304d8195a"><path d="M 1.453125 2.902344 L 24.675781 2.902344 L 24.675781 26 L 1.453125 26 Z M 1.453125 2.902344 " clip-rule="nonzero"/></clipPath></defs><g transform="matrix(1, 0, 0, 1, 27, 4)"><g clip-path="url(#6b0f659def)"><g fill="#000000" fill-opacity="1"><g transform="translate(0.413885, 11.512682)"><g><path d="M 3.4375 -7.4375 C 4.226562 -7.4375 4.914062 -7.28125 5.5 -6.96875 C 6.082031 -6.65625 6.535156 -6.21875 6.859375 -5.65625 C 7.179688 -5.09375 7.34375 -4.445312 7.34375 -3.71875 C 7.34375 -2.988281 7.179688 -2.34375 6.859375 -1.78125 C 6.535156 -1.21875 6.078125 -0.78125 5.484375 -0.46875 C 4.898438 -0.15625 4.21875 0 3.4375 0 L 0.65625 0 L 0.65625 -7.4375 Z M 3.328125 -1.5625 C 4.015625 -1.5625 4.546875 -1.75 4.921875 -2.125 C 5.304688 -2.5 5.5 -3.03125 5.5 -3.71875 C 5.5 -4.40625 5.304688 -4.9375 4.921875 -5.3125 C 4.546875 -5.695312 4.015625 -5.890625 3.328125 -5.890625 L 2.46875 -5.890625 L 2.46875 -1.5625 Z M 3.328125 -1.5625 "/></g></g></g><g fill="#000000" fill-opacity="1"><g transform="translate(8.118207, 11.512682)"><g><path d="M 4.171875 0.078125 C 3.472656 0.078125 2.832031 -0.0820312 2.25 -0.40625 C 1.664062 -0.738281 1.203125 -1.191406 0.859375 -1.765625 C 0.515625 -2.347656 0.34375 -3.003906 0.34375 -3.734375 C 0.34375 -4.460938 0.515625 -5.113281 0.859375 -5.6875 C 1.203125 -6.269531 1.664062 -6.722656 2.25 -7.046875 C 2.832031 -7.378906 3.472656 -7.546875 4.171875 -7.546875 C 4.867188 -7.546875 5.507812 -7.378906 6.09375 -7.046875 C 6.675781 -6.722656 7.132812 -6.269531 7.46875 -5.6875 C 7.8125 -5.113281 7.984375 -4.460938 7.984375 -3.734375 C 7.984375 -3.003906 7.8125 -2.347656 7.46875 -1.765625 C 7.125 -1.191406 6.660156 -0.738281 6.078125 -0.40625 C 5.503906 -0.0820312 4.867188 0.078125 4.171875 0.078125 Z M 4.171875 -1.578125 C 4.765625 -1.578125 5.238281 -1.773438 5.59375 -2.171875 C 5.957031 -2.566406 6.140625 -3.085938 6.140625 -3.734375 C 6.140625 -4.390625 5.957031 -4.914062 5.59375 -5.3125 C 5.238281 -5.707031 4.765625 -5.90625 4.171875 -5.90625 C 3.578125 -5.90625 3.097656 -5.707031 2.734375 -5.3125 C 2.378906 -4.925781 2.203125 -4.398438 2.203125 -3.734375 C 2.203125 -3.078125 2.378906 -2.550781 2.734375 -2.15625 C 3.097656 -1.769531 3.578125 -1.578125 4.171875 -1.578125 Z M 4.171875 -1.578125 "/></g></g></g><g fill="#000000" fill-opacity="1"><g transform="translate(16.447778, 11.512682)"><g><path d="M 0.34375 -3.734375 C 0.34375 -4.460938 0.5 -5.113281 0.8125 -5.6875 C 1.132812 -6.269531 1.582031 -6.71875 2.15625 -7.03125 C 2.726562 -7.351562 3.375 -7.515625 4.09375 -7.515625 C 4.96875 -7.515625 5.71875 -7.28125 6.34375 -6.8125 C 6.976562 -6.351562 7.398438 -5.722656 7.609375 -4.921875 L 5.625 -4.921875 C 5.476562 -5.222656 5.269531 -5.457031 5 -5.625 C 4.726562 -5.789062 4.414062 -5.875 4.0625 -5.875 C 3.507812 -5.875 3.054688 -5.675781 2.703125 -5.28125 C 2.359375 -4.894531 2.1875 -4.378906 2.1875 -3.734375 C 2.1875 -3.078125 2.359375 -2.554688 2.703125 -2.171875 C 3.054688 -1.785156 3.507812 -1.59375 4.0625 -1.59375 C 4.414062 -1.59375 4.726562 -1.671875 5 -1.828125 C 5.269531 -1.992188 5.476562 -2.234375 5.625 -2.546875 L 7.609375 -2.546875 C 7.398438 -1.734375 6.976562 -1.097656 6.34375 -0.640625 C 5.71875 -0.179688 4.96875 0.046875 4.09375 0.046875 C 3.375 0.046875 2.726562 -0.109375 2.15625 -0.421875 C 1.582031 -0.742188 1.132812 -1.191406 0.8125 -1.765625 C 0.5 -2.335938 0.34375 -2.992188 0.34375 -3.734375 Z M 0.34375 -3.734375 "/></g></g></g><g fill="#000000" fill-opacity="1"><g transform="translate(24.523011, 11.512682)"><g><path d="M 3.34375 0.078125 C 2.800781 0.078125 2.3125 -0.0078125 1.875 -0.1875 C 1.445312 -0.363281 1.101562 -0.625 0.84375 -0.96875 C 0.59375 -1.320312 0.457031 -1.738281 0.4375 -2.21875 L 2.375 -2.21875 C 2.40625 -1.945312 2.5 -1.738281 2.65625 -1.59375 C 2.820312 -1.445312 3.035156 -1.375 3.296875 -1.375 C 3.566406 -1.375 3.773438 -1.4375 3.921875 -1.5625 C 4.078125 -1.6875 4.15625 -1.859375 4.15625 -2.078125 C 4.15625 -2.265625 4.09375 -2.414062 3.96875 -2.53125 C 3.851562 -2.65625 3.703125 -2.753906 3.515625 -2.828125 C 3.335938 -2.898438 3.082031 -2.988281 2.75 -3.09375 C 2.269531 -3.238281 1.878906 -3.382812 1.578125 -3.53125 C 1.273438 -3.6875 1.015625 -3.90625 0.796875 -4.1875 C 0.578125 -4.476562 0.46875 -4.859375 0.46875 -5.328125 C 0.46875 -6.015625 0.71875 -6.554688 1.21875 -6.953125 C 1.71875 -7.347656 2.367188 -7.546875 3.171875 -7.546875 C 3.992188 -7.546875 4.65625 -7.347656 5.15625 -6.953125 C 5.65625 -6.554688 5.925781 -6.007812 5.96875 -5.3125 L 4 -5.3125 C 3.988281 -5.550781 3.898438 -5.738281 3.734375 -5.875 C 3.578125 -6.019531 3.367188 -6.09375 3.109375 -6.09375 C 2.890625 -6.09375 2.710938 -6.03125 2.578125 -5.90625 C 2.453125 -5.789062 2.390625 -5.625 2.390625 -5.40625 C 2.390625 -5.164062 2.5 -4.976562 2.71875 -4.84375 C 2.945312 -4.71875 3.300781 -4.578125 3.78125 -4.421875 C 4.257812 -4.253906 4.648438 -4.097656 4.953125 -3.953125 C 5.253906 -3.804688 5.515625 -3.585938 5.734375 -3.296875 C 5.953125 -3.015625 6.0625 -2.65625 6.0625 -2.21875 C 6.0625 -1.789062 5.953125 -1.40625 5.734375 -1.0625 C 5.515625 -0.71875 5.203125 -0.441406 4.796875 -0.234375 C 4.390625 -0.0234375 3.90625 0.078125 3.34375 0.078125 Z M 3.34375 0.078125 "/></g></g></g><g fill="#000000" fill-opacity="1"><g transform="translate(31.040421, 11.512682)"><g><path d="M 6 -7.4375 L 6 -5.984375 L 4.03125 -5.984375 L 4.03125 0 L 2.21875 0 L 2.21875 -5.984375 L 0.25 -5.984375 L 0.25 -7.4375 Z M 6 -7.4375 "/></g></g></g><g fill="#000000" fill-opacity="1"><g transform="translate(37.303497, 11.512682)"><g><path d="M 5.28125 -1.3125 L 2.515625 -1.3125 L 2.0625 0 L 0.171875 0 L 2.859375 -7.4375 L 4.953125 -7.4375 L 7.65625 0 L 5.734375 0 Z M 4.8125 -2.71875 L 3.90625 -5.4375 L 2.984375 -2.71875 Z M 4.8125 -2.71875 "/></g></g></g><g fill="#000000" fill-opacity="1"><g transform="translate(45.113793, 11.512682)"><g><path d="M 0.34375 -3.734375 C 0.34375 -4.460938 0.5 -5.113281 0.8125 -5.6875 C 1.132812 -6.269531 1.582031 -6.71875 2.15625 -7.03125 C 2.726562 -7.351562 3.375 -7.515625 4.09375 -7.515625 C 4.96875 -7.515625 5.71875 -7.28125 6.34375 -6.8125 C 6.976562 -6.351562 7.398438 -5.722656 7.609375 -4.921875 L 5.625 -4.921875 C 5.476562 -5.222656 5.269531 -5.457031 5 -5.625 C 4.726562 -5.789062 4.414062 -5.875 4.0625 -5.875 C 3.507812 -5.875 3.054688 -5.675781 2.703125 -5.28125 C 2.359375 -4.894531 2.1875 -4.378906 2.1875 -3.734375 C 2.1875 -3.078125 2.359375 -2.554688 2.703125 -2.171875 C 3.054688 -1.785156 3.507812 -1.59375 4.0625 -1.59375 C 4.414062 -1.59375 4.726562 -1.671875 5 -1.828125 C 5.269531 -1.992188 5.476562 -2.234375 5.625 -2.546875 L 7.609375 -2.546875 C 7.398438 -1.734375 6.976562 -1.097656 6.34375 -0.640625 C 5.71875 -0.179688 4.96875 0.046875 4.09375 0.046875 C 3.375 0.046875 2.726562 -0.109375 2.15625 -0.421875 C 1.582031 -0.742188 1.132812 -1.191406 0.8125 -1.765625 C 0.5 -2.335938 0.34375 -2.992188 0.34375 -3.734375 Z M 0.34375 -3.734375 "/></g></g></g><g clip-path="url(#4bfce4990b)"><g fill="#000000" fill-opacity="1"><g transform="translate(53.189026, 11.512682)"><g><path d="M 4.96875 0 L 2.46875 -3.28125 L 2.46875 0 L 0.65625 0 L 0.65625 -7.4375 L 2.46875 -7.4375 L 2.46875 -4.171875 L 4.953125 -7.4375 L 7.078125 -7.4375 L 4.1875 -3.796875 L 7.1875 0 Z M 4.96875 0 "/></g></g></g></g></g></g><g transform="matrix(1, 0, 0, 1, 31, 17)"><g clip-path="url(#ee13dc5b6e)"><g clip-path="url(#37902ede0c)"><g fill="#059669" fill-opacity="1"><g transform="translate(0.640689, 4.618271)"><g><path d="M 1.046875 -2.484375 C 1.316406 -2.484375 1.550781 -2.429688 1.75 -2.328125 C 1.945312 -2.234375 2.097656 -2.09375 2.203125 -1.90625 C 2.304688 -1.71875 2.359375 -1.492188 2.359375 -1.234375 C 2.359375 -0.984375 2.304688 -0.765625 2.203125 -0.578125 C 2.097656 -0.390625 1.945312 -0.242188 1.75 -0.140625 C 1.550781 -0.046875 1.316406 0 1.046875 0 L 0.28125 0 L 0.28125 -2.484375 Z M 1.046875 -0.265625 C 1.367188 -0.265625 1.613281 -0.347656 1.78125 -0.515625 C 1.945312 -0.691406 2.03125 -0.929688 2.03125 -1.234375 C 2.03125 -1.546875 1.945312 -1.785156 1.78125 -1.953125 C 1.613281 -2.128906 1.367188 -2.21875 1.046875 -2.21875 L 0.59375 -2.21875 L 0.59375 -0.265625 Z M 1.046875 -0.265625 "/></g></g></g></g><g fill="#059669" fill-opacity="1"><g transform="translate(4.942647, 4.618271)"><g><path d="M 1.40625 0.03125 C 1.164062 0.03125 0.953125 -0.0195312 0.765625 -0.125 C 0.578125 -0.238281 0.425781 -0.390625 0.3125 -0.578125 C 0.207031 -0.773438 0.15625 -1 0.15625 -1.25 C 0.15625 -1.488281 0.207031 -1.703125 0.3125 -1.890625 C 0.425781 -2.085938 0.578125 -2.238281 0.765625 -2.34375 C 0.953125 -2.457031 1.164062 -2.515625 1.40625 -2.515625 C 1.632812 -2.515625 1.84375 -2.457031 2.03125 -2.34375 C 2.21875 -2.238281 2.363281 -2.085938 2.46875 -1.890625 C 2.582031 -1.703125 2.640625 -1.488281 2.640625 -1.25 C 2.640625 -1 2.582031 -0.773438 2.46875 -0.578125 C 2.363281 -0.390625 2.21875 -0.238281 2.03125 -0.125 C 1.84375 -0.0195312 1.632812 0.03125 1.40625 0.03125 Z M 1.40625 -0.25 C 1.570312 -0.25 1.722656 -0.289062 1.859375 -0.375 C 2.003906 -0.457031 2.113281 -0.570312 2.1875 -0.71875 C 2.269531 -0.875 2.3125 -1.050781 2.3125 -1.25 C 2.3125 -1.445312 2.269531 -1.617188 2.1875 -1.765625 C 2.113281 -1.910156 2.003906 -2.023438 1.859375 -2.109375 C 1.722656 -2.191406 1.570312 -2.234375 1.40625 -2.234375 C 1.226562 -2.234375 1.066406 -2.191406 0.921875 -2.109375 C 0.785156 -2.023438 0.675781 -1.910156 0.59375 -1.765625 C 0.519531 -1.617188 0.484375 -1.445312 0.484375 -1.25 C 0.484375 -1.050781 0.519531 -0.875 0.59375 -0.71875 C 0.675781 -0.570312 0.785156 -0.457031 0.921875 -0.375 C 1.066406 -0.289062 1.226562 -0.25 1.40625 -0.25 Z M 1.40625 -0.25 "/></g></g></g><g fill="#059669" fill-opacity="1"><g transform="translate(9.525419, 4.618271)"><g><path d="M 0.15625 -1.25 C 0.15625 -1.488281 0.207031 -1.703125 0.3125 -1.890625 C 0.425781 -2.085938 0.578125 -2.238281 0.765625 -2.34375 C 0.953125 -2.457031 1.160156 -2.515625 1.390625 -2.515625 C 1.660156 -2.515625 1.894531 -2.445312 2.09375 -2.3125 C 2.300781 -2.1875 2.453125 -2.003906 2.546875 -1.765625 L 2.15625 -1.765625 C 2.082031 -1.910156 1.976562 -2.023438 1.84375 -2.109375 C 1.71875 -2.191406 1.566406 -2.234375 1.390625 -2.234375 C 1.222656 -2.234375 1.066406 -2.191406 0.921875 -2.109375 C 0.785156 -2.023438 0.675781 -1.910156 0.59375 -1.765625 C 0.519531 -1.617188 0.484375 -1.445312 0.484375 -1.25 C 0.484375 -1.050781 0.519531 -0.875 0.59375 -0.71875 C 0.675781 -0.570312 0.785156 -0.457031 0.921875 -0.375 C 1.066406 -0.300781 1.222656 -0.265625 1.390625 -0.265625 C 1.566406 -0.265625 1.71875 -0.300781 1.84375 -0.375 C 1.976562 -0.457031 2.082031 -0.570312 2.15625 -0.71875 L 2.546875 -0.71875 C 2.453125 -0.476562 2.300781 -0.296875 2.09375 -0.171875 C 1.894531 -0.046875 1.660156 0.015625 1.390625 0.015625 C 1.160156 0.015625 0.953125 -0.0351562 0.765625 -0.140625 C 0.578125 -0.242188 0.425781 -0.390625 0.3125 -0.578125 C 0.207031 -0.773438 0.15625 -1 0.15625 -1.25 Z M 0.15625 -1.25 "/></g></g></g><g fill="#059669" fill-opacity="1"><g transform="translate(14.058426, 4.618271)"><g><path d="M 0.59375 -2.484375 L 0.59375 -0.90625 C 0.59375 -0.6875 0.644531 -0.523438 0.75 -0.421875 C 0.863281 -0.316406 1.015625 -0.265625 1.203125 -0.265625 C 1.390625 -0.265625 1.535156 -0.316406 1.640625 -0.421875 C 1.753906 -0.523438 1.8125 -0.6875 1.8125 -0.90625 L 1.8125 -2.484375 L 2.140625 -2.484375 L 2.140625 -0.921875 C 2.140625 -0.710938 2.097656 -0.535156 2.015625 -0.390625 C 1.929688 -0.253906 1.816406 -0.148438 1.671875 -0.078125 C 1.535156 -0.00390625 1.378906 0.03125 1.203125 0.03125 C 1.023438 0.03125 0.863281 -0.00390625 0.71875 -0.078125 C 0.582031 -0.148438 0.472656 -0.253906 0.390625 -0.390625 C 0.304688 -0.535156 0.265625 -0.710938 0.265625 -0.921875 L 0.265625 -2.484375 Z M 0.59375 -2.484375 "/></g></g></g><g fill="#059669" fill-opacity="1"><g transform="translate(18.246638, 4.618271)"><g><path d="M 2.796875 -2.46875 L 2.796875 0 L 2.46875 0 L 2.46875 -1.84375 L 1.65625 0 L 1.421875 0 L 0.59375 -1.84375 L 0.59375 0 L 0.28125 0 L 0.28125 -2.46875 L 0.625 -2.46875 L 1.53125 -0.421875 L 2.453125 -2.46875 Z M 2.796875 -2.46875 "/></g></g></g><g fill="#059669" fill-opacity="1"><g transform="translate(23.096004, 4.618271)"><g><path d="M 0.59375 -2.21875 L 0.59375 -1.390625 L 1.5 -1.390625 L 1.5 -1.125 L 0.59375 -1.125 L 0.59375 -0.265625 L 1.609375 -0.265625 L 1.609375 0 L 0.28125 0 L 0.28125 -2.484375 L 1.609375 -2.484375 L 1.609375 -2.21875 Z M 0.59375 -2.21875 "/></g></g></g><g fill="#059669" fill-opacity="1"><g transform="translate(26.708368, 4.618271)"><g><path d="M 2.21875 0 L 1.90625 0 L 0.59375 -1.984375 L 0.59375 0 L 0.28125 0 L 0.28125 -2.484375 L 0.59375 -2.484375 L 1.90625 -0.515625 L 1.90625 -2.484375 L 2.21875 -2.484375 Z M 2.21875 0 "/></g></g></g><g fill="#059669" fill-opacity="1"><g transform="translate(30.996107, 4.618271)"><g><path d="M 1.796875 -2.484375 L 1.796875 -2.21875 L 1.125 -2.21875 L 1.125 0 L 0.796875 0 L 0.796875 -2.21875 L 0.125 -2.21875 L 0.125 -2.484375 Z M 1.796875 -2.484375 "/></g></g></g><g fill="#059669" fill-opacity="1"><g transform="translate(34.707999, 4.618271)"><g><path d="M 1.734375 -0.546875 L 0.65625 -0.546875 L 0.453125 0 L 0.125 0 L 1.015625 -2.46875 L 1.390625 -2.46875 L 2.28125 0 L 1.9375 0 Z M 1.65625 -0.8125 L 1.203125 -2.0625 L 0.75 -0.8125 Z M 1.65625 -0.8125 "/></g></g></g><g fill="#059669" fill-opacity="1"><g transform="translate(38.892656, 4.618271)"><g><path d="M 1.796875 -2.484375 L 1.796875 -2.21875 L 1.125 -2.21875 L 1.125 0 L 0.796875 0 L 0.796875 -2.21875 L 0.125 -2.21875 L 0.125 -2.484375 Z M 1.796875 -2.484375 "/></g></g></g><g fill="#059669" fill-opacity="1"><g transform="translate(42.604548, 4.618271)"><g><path d="M 0.59375 -2.484375 L 0.59375 0 L 0.28125 0 L 0.28125 -2.484375 Z M 0.59375 -2.484375 "/></g></g></g><g fill="#059669" fill-opacity="1"><g transform="translate(45.267832, 4.618271)"><g><path d="M 1.40625 0.03125 C 1.164062 0.03125 0.953125 -0.0195312 0.765625 -0.125 C 0.578125 -0.238281 0.425781 -0.390625 0.3125 -0.578125 C 0.207031 -0.773438 0.15625 -1 0.15625 -1.25 C 0.15625 -1.488281 0.207031 -1.703125 0.3125 -1.890625 C 0.425781 -2.085938 0.578125 -2.238281 0.765625 -2.34375 C 0.953125 -2.457031 1.164062 -2.515625 1.40625 -2.515625 C 1.632812 -2.515625 1.84375 -2.457031 2.03125 -2.34375 C 2.21875 -2.238281 2.363281 -2.085938 2.46875 -1.890625 C 2.582031 -1.703125 2.640625 -1.488281 2.640625 -1.25 C 2.640625 -1 2.582031 -0.773438 2.46875 -0.578125 C 2.363281 -0.390625 2.21875 -0.238281 2.03125 -0.125 C 1.84375 -0.0195312 1.632812 0.03125 1.40625 0.03125 Z M 1.40625 -0.25 C 1.570312 -0.25 1.722656 -0.289062 1.859375 -0.375 C 2.003906 -0.457031 2.113281 -0.570312 2.1875 -0.71875 C 2.269531 -0.875 2.3125 -1.050781 2.3125 -1.25 C 2.3125 -1.445312 2.269531 -1.617188 2.1875 -1.765625 C 2.113281 -1.910156 2.003906 -2.023438 1.859375 -2.109375 C 1.722656 -2.191406 1.570312 -2.234375 1.40625 -2.234375 C 1.226562 -2.234375 1.066406 -2.191406 0.921875 -2.109375 C 0.785156 -2.023438 0.675781 -1.910156 0.59375 -1.765625 C 0.519531 -1.617188 0.484375 -1.445312 0.484375 -1.25 C 0.484375 -1.050781 0.519531 -0.875 0.59375 -0.71875 C 0.675781 -0.570312 0.785156 -0.457031 0.921875 -0.375 C 1.066406 -0.289062 1.226562 -0.25 1.40625 -0.25 Z M 1.40625 -0.25 "/></g></g></g><g fill="#059669" fill-opacity="1"><g transform="translate(49.850605, 4.618271)"><g><path d="M 2.21875 0 L 1.90625 0 L 0.59375 -1.984375 L 0.59375 0 L 0.28125 0 L 0.28125 -2.484375 L 0.59375 -2.484375 L 1.90625 -0.515625 L 1.90625 -2.484375 L 2.21875 -2.484375 Z M 2.21875 0 "/></g></g></g></g></g><g clip-path="url(#d304d8195a)"><path fill="#059669" d="M 24.324219 14.359375 C 24.324219 15.902344 24.019531 17.402344 23.425781 18.8125 C 22.847656 20.175781 22.023438 21.398438 20.972656 22.449219 C 19.925781 23.5 18.703125 24.324219 17.339844 24.902344 C 15.929688 25.5 14.429688 25.808594 12.886719 25.808594 L 7.722656 25.808594 L 12.871094 22.898438 L 12.886719 22.898438 C 17.589844 22.898438 21.414062 19.0625 21.414062 14.363281 C 21.414062 9.660156 17.589844 5.828125 12.886719 5.828125 L 4.359375 5.828125 L 4.359375 13.644531 L 10.714844 10.050781 C 11.753906 9.460938 12.960938 9.300781 14.117188 9.601562 C 15.273438 9.898438 16.253906 10.621094 16.875 11.640625 C 17.53125 12.707031 17.71875 13.960938 17.40625 15.171875 C 17.09375 16.382812 16.320312 17.390625 15.234375 18.007812 L 1.453125 25.800781 L 1.453125 22.457031 L 13.796875 15.476562 C 14.191406 15.253906 14.472656 14.886719 14.585938 14.445312 C 14.699219 14.003906 14.632812 13.546875 14.394531 13.160156 C 13.921875 12.390625 12.9375 12.136719 12.152344 12.582031 L 1.453125 18.636719 L 1.453125 2.917969 L 12.886719 2.917969 C 14.429688 2.917969 15.929688 3.222656 17.339844 3.820312 C 18.703125 4.394531 19.925781 5.222656 20.976562 6.269531 C 22.023438 7.320312 22.847656 8.542969 23.425781 9.90625 C 24.019531 11.316406 24.324219 12.816406 24.324219 14.359375 Z M 24.324219 14.359375 " fill-opacity="1" fill-rule="nonzero"/></g></svg>